<svg width="253" height="229" viewBox="0 0 253 229" fill="none" xmlns="http://www.w3.org/2000/svg">
<g filter="url(#filter0_d_3878_670)">
<rect x="38" y="55" width="170" height="128" rx="6" fill="white"/>
</g>
<path d="M63.4 89.678L65.92 82.028H68.602L64.912 92H61.852L58.18 82.028H60.88L63.4 89.678ZM69.4234 81.2V78.878H73.7614V92H71.1694V81.2H69.4234ZM77.6549 92.126C77.1989 92.126 76.8209 91.988 76.5209 91.712C76.2329 91.424 76.0889 91.07 76.0889 90.65C76.0889 90.23 76.2329 89.882 76.5209 89.606C76.8209 89.318 77.1989 89.174 77.6549 89.174C78.0989 89.174 78.4649 89.318 78.7529 89.606C79.0409 89.882 79.1849 90.23 79.1849 90.65C79.1849 91.07 79.0409 91.424 78.7529 91.712C78.4649 91.988 78.0989 92.126 77.6549 92.126ZM81.7187 89.156C82.8707 88.196 83.7887 87.398 84.4727 86.762C85.1567 86.114 85.7267 85.442 86.1827 84.746C86.6387 84.05 86.8667 83.366 86.8667 82.694C86.8667 82.082 86.7227 81.602 86.4347 81.254C86.1467 80.906 85.7027 80.732 85.1027 80.732C84.5027 80.732 84.0407 80.936 83.7167 81.344C83.3927 81.74 83.2247 82.286 83.2127 82.982H80.7647C80.8127 81.542 81.2387 80.45 82.0427 79.706C82.8587 78.962 83.8907 78.59 85.1387 78.59C86.5067 78.59 87.5567 78.956 88.2887 79.688C89.0207 80.408 89.3867 81.362 89.3867 82.55C89.3867 83.486 89.1347 84.38 88.6307 85.232C88.1267 86.084 87.5507 86.828 86.9027 87.464C86.2547 88.088 85.4087 88.844 84.3647 89.732H89.6747V91.82H80.7827V89.948L81.7187 89.156ZM91.2626 85.268C91.2626 83.192 91.6346 81.566 92.3786 80.39C93.1346 79.214 94.3826 78.626 96.1226 78.626C97.8626 78.626 99.1046 79.214 99.8486 80.39C100.605 81.566 100.983 83.192 100.983 85.268C100.983 87.356 100.605 88.994 99.8486 90.182C99.1046 91.37 97.8626 91.964 96.1226 91.964C94.3826 91.964 93.1346 91.37 92.3786 90.182C91.6346 88.994 91.2626 87.356 91.2626 85.268ZM98.4986 85.268C98.4986 84.38 98.4386 83.636 98.3186 83.036C98.2106 82.424 97.9826 81.926 97.6346 81.542C97.2986 81.158 96.7946 80.966 96.1226 80.966C95.4506 80.966 94.9406 81.158 94.5926 81.542C94.2566 81.926 94.0286 82.424 93.9086 83.036C93.8006 83.636 93.7466 84.38 93.7466 85.268C93.7466 86.18 93.8006 86.948 93.9086 87.572C94.0166 88.184 94.2446 88.682 94.5926 89.066C94.9406 89.438 95.4506 89.624 96.1226 89.624C96.7946 89.624 97.3046 89.438 97.6526 89.066C98.0006 88.682 98.2286 88.184 98.3366 87.572C98.4446 86.948 98.4986 86.18 98.4986 85.268ZM104.303 92.126C103.847 92.126 103.469 91.988 103.169 91.712C102.881 91.424 102.737 91.07 102.737 90.65C102.737 90.23 102.881 89.882 103.169 89.606C103.469 89.318 103.847 89.174 104.303 89.174C104.747 89.174 105.113 89.318 105.401 89.606C105.689 89.882 105.833 90.23 105.833 90.65C105.833 91.07 105.689 91.424 105.401 91.712C105.113 91.988 104.747 92.126 104.303 92.126ZM107.575 85.268C107.575 83.192 107.947 81.566 108.691 80.39C109.447 79.214 110.695 78.626 112.435 78.626C114.175 78.626 115.417 79.214 116.161 80.39C116.917 81.566 117.295 83.192 117.295 85.268C117.295 87.356 116.917 88.994 116.161 90.182C115.417 91.37 114.175 91.964 112.435 91.964C110.695 91.964 109.447 91.37 108.691 90.182C107.947 88.994 107.575 87.356 107.575 85.268ZM114.811 85.268C114.811 84.38 114.751 83.636 114.631 83.036C114.523 82.424 114.295 81.926 113.947 81.542C113.611 81.158 113.107 80.966 112.435 80.966C111.763 80.966 111.253 81.158 110.905 81.542C110.569 81.926 110.341 82.424 110.221 83.036C110.113 83.636 110.059 84.38 110.059 85.268C110.059 86.18 110.113 86.948 110.221 87.572C110.329 88.184 110.557 88.682 110.905 89.066C111.253 89.438 111.763 89.624 112.435 89.624C113.107 89.624 113.617 89.438 113.965 89.066C114.313 88.682 114.541 88.184 114.649 87.572C114.757 86.948 114.811 86.18 114.811 85.268Z" fill="#0F172A"/>
<rect x="58" y="143" width="130" height="20" rx="6" fill="#2563EB"/>
<rect x="58" y="110" width="65" height="6" rx="3" fill="#B4B6C4"/>
<rect x="58" y="124" width="65" height="6" rx="3" fill="#B4B6C4"/>
<g filter="url(#filter1_d_3878_670)">
<rect x="109" y="14" width="50" height="50" rx="6" fill="white"/>
</g>
<g filter="url(#filter2_d_3878_670)">
<rect x="171" y="77" width="50" height="50" rx="6" fill="white"/>
</g>
<g clip-path="url(#clip0_3878_670)">
<path d="M211.003 98.9998C211.004 100.497 210.633 101.97 209.921 103.287C209.21 104.604 208.181 105.722 206.928 106.541C205.675 107.361 204.238 107.854 202.747 107.978C201.255 108.102 199.756 107.851 198.385 107.25L191.878 114.777C191.863 114.795 191.845 114.814 191.829 114.83C191.079 115.58 190.061 116.001 189 116.001C187.939 116.001 186.922 115.58 186.172 114.83C185.421 114.08 185 113.062 185 112.001C185 110.94 185.421 109.922 186.172 109.172C186.189 109.156 186.207 109.139 186.225 109.124L193.753 102.617C193.079 101.075 192.85 99.3736 193.093 97.7076C193.336 96.0415 194.042 94.477 195.129 93.1914C196.216 91.9058 197.642 90.9506 199.244 90.4342C200.847 89.9178 202.562 89.8608 204.195 90.2698C204.364 90.312 204.518 90.3972 204.644 90.5173C204.769 90.6373 204.861 90.7879 204.911 90.9542C204.96 91.1206 204.966 91.2969 204.926 91.466C204.887 91.6351 204.805 91.791 204.687 91.9185L200.003 96.9998L200.71 100.294L204.003 101L209.084 96.3098C209.212 96.1919 209.368 96.1093 209.537 96.0701C209.706 96.0308 209.882 96.0362 210.049 96.0858C210.215 96.1353 210.365 96.2273 210.485 96.3527C210.605 96.4781 210.691 96.6326 210.733 96.801C210.912 97.5201 211.003 98.2586 211.003 98.9998Z" fill="#FDE047"/>
</g>
<path d="M148.742 38.4011C148.715 38.2603 148.657 38.1272 148.573 38.0107C148.489 37.8942 148.381 37.7972 148.256 37.7261L144.527 35.6011L144.512 31.3986C144.512 31.2539 144.48 31.111 144.419 30.9798C144.358 30.8486 144.269 30.7322 144.159 30.6386C142.806 29.4945 141.249 28.6177 139.569 28.0549C139.436 28.0101 139.296 27.9935 139.157 28.0063C139.018 28.019 138.883 28.0606 138.761 28.1286L135 30.2311L131.235 28.1249C131.113 28.0565 130.978 28.0145 130.839 28.0016C130.699 27.9887 130.559 28.0051 130.426 28.0499C128.747 28.6163 127.192 29.4965 125.841 30.6436C125.731 30.737 125.642 30.8532 125.581 30.9842C125.52 31.1152 125.488 31.2579 125.487 31.4024L125.469 35.6086L121.74 37.7336C121.615 37.8047 121.507 37.9017 121.423 38.0182C121.339 38.1347 121.282 38.2678 121.254 38.4086C120.912 40.1235 120.912 41.8888 121.254 43.6036C121.282 43.7445 121.339 43.8776 121.423 43.9941C121.507 44.1106 121.615 44.2076 121.74 44.2786L125.469 46.4036L125.484 50.6074C125.484 50.7521 125.516 50.895 125.577 51.0263C125.638 51.1575 125.727 51.2739 125.837 51.3674C127.19 52.5115 128.748 53.3883 130.427 53.9511C130.56 53.9959 130.7 54.0125 130.839 53.9998C130.978 53.9871 131.113 53.9454 131.235 53.8774L135 51.7686L138.765 53.8749C138.914 53.9579 139.082 54.001 139.252 53.9999C139.362 53.9999 139.47 53.9821 139.574 53.9474C141.252 53.3812 142.808 52.5019 144.159 51.3561C144.269 51.2627 144.358 51.1466 144.419 51.0156C144.48 50.8846 144.512 50.7419 144.512 50.5974L144.531 46.3911L148.26 44.2661C148.385 44.1951 148.493 44.0981 148.577 43.9816C148.661 43.8651 148.718 43.732 148.746 43.5911C149.086 41.8777 149.084 40.1141 148.742 38.4011ZM135 45.9999C134.011 45.9999 133.044 45.7067 132.222 45.1572C131.4 44.6078 130.759 43.8269 130.381 42.9133C130.002 41.9997 129.903 40.9943 130.096 40.0244C130.289 39.0545 130.765 38.1636 131.464 37.4644C132.164 36.7651 133.055 36.2889 134.025 36.096C134.994 35.903 136 36.0021 136.913 36.3805C137.827 36.7589 138.608 37.3998 139.157 38.222C139.707 39.0443 140 40.011 140 40.9999C140 42.326 139.473 43.5977 138.536 44.5354C137.598 45.4731 136.326 45.9999 135 45.9999Z" fill="#2563EB"/>
<defs>
<filter id="filter0_d_3878_670" x="0" y="25" width="246" height="204" filterUnits="userSpaceOnUse" color-interpolation-filters="sRGB">
<feFlood flood-opacity="0" result="BackgroundImageFix"/>
<feColorMatrix in="SourceAlpha" type="matrix" values="0 0 0 0 0 0 0 0 0 0 0 0 0 0 0 0 0 0 127 0" result="hardAlpha"/>
<feMorphology radius="2" operator="erode" in="SourceAlpha" result="effect1_dropShadow_3878_670"/>
<feOffset dy="8"/>
<feGaussianBlur stdDeviation="20"/>
<feColorMatrix type="matrix" values="0 0 0 0 0.0235294 0 0 0 0 0.0470588 0 0 0 0 0.231373 0 0 0 0.08 0"/>
<feBlend mode="normal" in2="BackgroundImageFix" result="effect1_dropShadow_3878_670"/>
<feBlend mode="normal" in="SourceGraphic" in2="effect1_dropShadow_3878_670" result="shape"/>
</filter>
<filter id="filter1_d_3878_670" x="89" y="0" width="90" height="90" filterUnits="userSpaceOnUse" color-interpolation-filters="sRGB">
<feFlood flood-opacity="0" result="BackgroundImageFix"/>
<feColorMatrix in="SourceAlpha" type="matrix" values="0 0 0 0 0 0 0 0 0 0 0 0 0 0 0 0 0 0 127 0" result="hardAlpha"/>
<feOffset dy="6"/>
<feGaussianBlur stdDeviation="10"/>
<feColorMatrix type="matrix" values="0 0 0 0 0.11 0 0 0 0 0.14137 0 0 0 0 0.4125 0 0 0 0.05 0"/>
<feBlend mode="normal" in2="BackgroundImageFix" result="effect1_dropShadow_3878_670"/>
<feBlend mode="normal" in="SourceGraphic" in2="effect1_dropShadow_3878_670" result="shape"/>
</filter>
<filter id="filter2_d_3878_670" x="151" y="63" width="90" height="90" filterUnits="userSpaceOnUse" color-interpolation-filters="sRGB">
<feFlood flood-opacity="0" result="BackgroundImageFix"/>
<feColorMatrix in="SourceAlpha" type="matrix" values="0 0 0 0 0 0 0 0 0 0 0 0 0 0 0 0 0 0 127 0" result="hardAlpha"/>
<feOffset dy="6"/>
<feGaussianBlur stdDeviation="10"/>
<feColorMatrix type="matrix" values="0 0 0 0 0.11 0 0 0 0 0.14137 0 0 0 0 0.4125 0 0 0 0.05 0"/>
<feBlend mode="normal" in2="BackgroundImageFix" result="effect1_dropShadow_3878_670"/>
<feBlend mode="normal" in="SourceGraphic" in2="effect1_dropShadow_3878_670" result="shape"/>
</filter>
<clipPath id="clip0_3878_670">
<rect width="32" height="32" fill="white" transform="translate(179 87)"/>
</clipPath>
</defs>
</svg>
