<svg width="256" height="252" viewBox="0 0 256 252" fill="none" xmlns="http://www.w3.org/2000/svg">
<g filter="url(#filter0_d_3877_694)">
<rect x="38" y="30" width="180" height="176" rx="6" fill="white"/>
</g>
<rect x="82" y="164" width="122" height="6" rx="3" fill="#B4B6C4"/>
<rect x="52" y="164" width="20" height="6" rx="3" fill="#B4B6C4"/>
<rect x="82" y="178" width="122" height="6" rx="3" fill="#B4B6C4"/>
<rect x="52" y="178" width="20" height="6" rx="3" fill="#B4B6C4"/>
<path d="M84.9596 85.6762L100.256 83.7257C101.366 83.5177 120.68 79.6605 137.254 61.7288C138.054 60.8618 139.085 60.2412 140.226 59.9399C141.367 59.6386 142.57 59.6691 143.694 60.0277C144.818 60.3864 145.816 61.0584 146.571 61.9648C147.327 62.8712 147.808 63.9743 147.958 65.1445L155.799 126.636C155.948 127.807 155.76 128.996 155.257 130.064C154.753 131.131 153.956 132.033 152.958 132.662C151.96 133.292 150.802 133.624 149.622 133.619C148.442 133.613 147.288 133.271 146.296 132.633C130.227 122.308 114.705 120.741 108.158 120.584L109.713 132.775C109.844 133.788 109.722 134.818 109.358 135.772C108.995 136.727 108.401 137.577 107.63 138.247L103.762 141.603C103.014 142.253 102.122 142.714 101.159 142.947C100.197 143.181 99.1925 143.181 98.2302 142.947C97.2679 142.713 96.3757 142.252 95.6283 141.602C94.8809 140.952 94.3001 140.132 93.9345 139.212L87.237 122.74C82.4875 122.762 77.9097 120.966 74.4424 117.72C70.975 114.474 68.881 110.025 68.5897 105.284C68.2984 100.543 69.832 95.871 72.8758 92.2251C75.9197 88.5792 80.2432 86.236 84.9596 85.6762ZM99.6901 136.873L99.6955 136.915L103.564 133.559L101.963 121.003L93.6613 122.062L99.6901 136.873ZM88.8802 116.422L101.179 114.854L98.0421 90.2571L85.7438 91.8254C82.482 92.2413 79.5191 93.9359 77.5068 96.5364C75.4945 99.1369 74.5977 102.43 75.0136 105.692C75.4295 108.954 77.1241 111.917 79.7246 113.929C82.3251 115.941 85.6185 116.838 88.8802 116.422Z" fill="#2563EB"/>
<rect x="160.166" y="78.7507" width="20" height="5" rx="2.5" transform="rotate(-24.3398 160.166 78.7507)" fill="#FACC15"/>
<rect x="160.081" y="88.1061" width="25.6066" height="5" rx="2.5" transform="rotate(-6.82965 160.081 88.1061)" fill="#FACC15"/>
<rect x="160.774" y="99.3248" width="20" height="5" rx="2.5" transform="rotate(8.3109 160.774 99.3248)" fill="#FACC15"/>
<defs>
<filter id="filter0_d_3877_694" x="0" y="0" width="256" height="252" filterUnits="userSpaceOnUse" color-interpolation-filters="sRGB">
<feFlood flood-opacity="0" result="BackgroundImageFix"/>
<feColorMatrix in="SourceAlpha" type="matrix" values="0 0 0 0 0 0 0 0 0 0 0 0 0 0 0 0 0 0 127 0" result="hardAlpha"/>
<feMorphology radius="2" operator="erode" in="SourceAlpha" result="effect1_dropShadow_3877_694"/>
<feOffset dy="8"/>
<feGaussianBlur stdDeviation="20"/>
<feColorMatrix type="matrix" values="0 0 0 0 0.0235294 0 0 0 0 0.0470588 0 0 0 0 0.231373 0 0 0 0.08 0"/>
<feBlend mode="normal" in2="BackgroundImageFix" result="effect1_dropShadow_3877_694"/>
<feBlend mode="normal" in="SourceGraphic" in2="effect1_dropShadow_3877_694" result="shape"/>
</filter>
</defs>
</svg>
